<svg version="1.1" xmlns="http://www.w3.org/2000/svg" xmlns:xlink="http://www.w3.org/1999/xlink" width="2500" height="2500" viewBox="0,0,256,256"><g fill="none" fill-rule="nonzero" stroke="none" stroke-width="1" stroke-linecap="butt" stroke-linejoin="miter" stroke-miterlimit="10" stroke-dasharray="" stroke-dashoffset="0" font-family="none" font-weight="none" font-size="none" text-anchor="none" style="mix-blend-mode: normal"><g transform="translate(-0.5,-3.42183) scale(2,2)"><path d="M107.4,50.9c-0.2,-4.4 0.4,-8.3 -1.6,-11.6c-4.8,-8.2 -16.8,-13 -40.8,-13v0.7h-0.5h0.5v-0.7c-24,0 -36.6,4.8 -41.4,13.1c-1.9,3.4 -1.7,7.2 -2,11.6c-0.2,3.5 -1.8,7.2 -1.1,11.2c0.8,5.2 1.1,10.4 1.9,15.2c0.6,3.9 6,7.2 6.5,10.9c1.4,10.2 12,14.9 36,14.9v0.8h-0.6h0.7v-0.8c24,0 34.2,-4.7 35.5,-14.9c0.5,-3.8 5.5,-7 6.1,-10.9c0.8,-4.8 1.1,-10 1.9,-15.2c0.7,-4 -0.9,-7.8 -1.1,-11.3z" fill-opacity="0.50196" fill="#7b4ae2"></path><path d="M64.6,54.5c4.3,0.1 7.3,2.8 10.1,5.3c3.3,2.9 8.9,4.9 11.2,7.4c2.3,2.5 5.3,5 6.4,8.9c1.1,3.9 1.4,8.9 1.4,10.2c0,1.3 0.7,1 2.7,0c4.7,-2.3 9.9,-8.5 9.9,-8.5c-0.6,3.9 -5.7,7.4 -6.2,11.1c-1.2,10.2 -11.1,15.1 -35.6,15.1h-0.1h0.6" fill-opacity="0.50196" fill="#7b4ae2"></path><path d="M80.4,46.7c0.9,3.1 4.1,13.6 -2.1,10.1c0,0 2.6,1.5 4.2,7.2c1.7,5.7 5.8,6.4 5.8,6.4c0,0 6.7,1.3 11.7,-3c4.2,-3.6 4.9,-10 3.1,-14.9c-1.8,-4.8 -5,-6.3 -9.7,-7.3c-4.7,-1.1 -14.1,-2 -13,1.5z" fill-opacity="0.50196" fill="#7b4ae2"></path><circle cx="92.3" cy="58.1" r="8.8" fill="#000000"></circle><circle cx="90" cy="54.2" r="2.3" fill="#ffffff"></circle><path d="M78.9,57.7c0,0 7.9,5.4 12.2,10.7c4.3,5.3 4.2,6.3 4.2,6.3l-3.1,1.4c0,0 -4.4,-8.3 -9.8,-11.4c-5.5,-3.1 -6.1,-5.7 -6.1,-5.7z" fill-opacity="0.50196" fill="#7b4ae2"></path><path d="M64.9,54.5c-4.3,0.1 -7.5,2.8 -10.4,5.3c-3.3,2.9 -9.1,4.9 -11.4,7.4c-2.3,2.5 -5.4,5 -6.5,8.9c-1.1,3.9 -1.5,8.9 -1.5,10.2c0,1.3 0.2,1.4 -2.7,0c-4.7,-2.2 -9.9,-8.5 -9.9,-8.5c0.6,3.9 5.7,7.4 6.2,11.1c1.4,10.2 11.3,15.1 35.8,15.1h0.5" fill-opacity="0.50196" fill="#7b4ae2"></path><path d="M88.1,71.4c-4.8,-5.9 -12.5,-11.4 -23.2,-11.4h-0.1c-10.7,0 -18.4,5.5 -23.2,11.4c-5,6.1 -4.6,8.5 -4.6,14.3c0,21 7.4,15 12.3,17.6c5,2.5 10.2,1.7 15.5,1.7h0.1c5.4,0 10.5,0.7 15.5,-1.8c4.9,-2.5 12.3,3.7 12.3,-17.3c0.1,-5.8 0.4,-8.4 -4.6,-14.5z" fill-opacity="0.50196" fill="#7b4ae2"></path><path d="M64.4,65.2c0,0 -0.7,9.7 -2.1,11.6l2.6,-0.6z" fill-opacity="0.50196" fill="#7b4ae2"></path><path d="M65.1,65.2c0,0 0.7,9.7 2.1,11.6l-2.6,-0.6z" fill-opacity="0.50196" fill="#7b4ae2"></path><path d="M56.7,62.9c-1,-2.3 2.6,-6 8.3,-6.1c5.7,0 9.3,3.7 8.3,6.1c-1,2.4 -4.6,3.1 -8.3,3.2c-3.6,-0.1 -7.3,-0.8 -8.3,-3.2z" fill-opacity="0.50196" fill="#7b4ae2"></path><path d="M65,65.2c0,-0.4 3.4,-0.5 5.2,-1.7c0,0 -3.7,1.2 -4.5,0.7c-0.8,-0.4 -1,-1.6 -1,-1.6c0,0 -0.3,1.2 -0.9,1.6c-0.7,0.4 -4.9,-0.7 -4.9,-0.7c0,0 5.6,1.4 5.6,1.7c0,0.3 -0.1,1.3 -0.1,2c0,2.5 0,8.7 0.4,9.2c0.6,0.9 0.4,-6.7 0.4,-9.2c-0.1,-0.8 -0.1,-1.6 -0.2,-2z" fill="#000000"></path><path d="M65.2,78.6c1.7,0 4.7,1.2 7.4,3.1c-2.6,-2.9 -5.7,-4.9 -7.4,-4.9c-1.8,0 -5.6,2.2 -8.3,5.4c2.8,-2.2 6.4,-3.6 8.3,-3.6z" fill="#7f4a41"></path><path d="M64.5,96.3c-3.8,0 -7.5,-1.2 -10.9,-2.1c-0.7,-0.2 -1.4,0.3 -2.1,0.1c-6.3,-2 -11.4,-5.4 -14.5,-9.7v1c0,21 7.4,15.1 12.3,17.6c5,2.5 10.2,1.7 15.5,1.7h0.1c5.4,0 10.5,0.7 15.5,-1.8c4.9,-2.5 12.3,3.6 12.3,-17.4c0,-0.8 0,-1.6 0.1,-2.3c-2.9,4.7 -8.2,8.4 -14.8,10.6c-0.6,0.2 -2,-0.3 -2.6,-0.2c-3.6,1.2 -6.8,2.5 -10.9,2.5z" fill-opacity="0.50196" fill="#7b4ae2"></path><path d="M55,85c0,0 -2.5,7.5 -0.8,10.8l-2.3,-1c0,0 1.7,-7.6 3.1,-9.8zM74.8,85c0,0 2.5,7.5 0.8,10.8l2.3,-1c0,0 -1.8,-7.6 -3.1,-9.8z" fill-opacity="0.50196" fill="#7b4ae2"></path><path d="M48.6,46.7c-0.9,3.1 -4.1,13.6 2.1,10.1c0,0 -2.6,1.5 -4.2,7.2c-1.6,5.7 -5.8,6.4 -5.8,6.4c0,0 -6.7,1.3 -11.7,-3c-4.2,-3.6 -4.9,-10 -3.1,-14.9c1.8,-4.9 5,-6.3 9.7,-7.3c4.7,-1.1 14,-2 13,1.5z" fill-opacity="0.50196" fill="#7b4ae2"></path><path d="M64.9,76.8c2.7,0 11.1,5.8 11.2,12.9v-0.4c0,-7.4 -6.8,-13.3 -11.2,-13.3c-4.4,0 -11.2,6 -11.2,13.3v0.4c0.1,-7.1 8.5,-12.9 11.2,-12.9z" fill="#000000"></path><ellipse cx="49.23125" cy="76.21538" transform="rotate(-14.465)" rx="0.8" ry="1.5" fill="#331712"></ellipse><ellipse cx="77.81006" cy="40.26021" transform="rotate(17.235)" rx="0.8" ry="1.5" fill="#331712"></ellipse><circle cx="37.2" cy="58.1" r="8.8" fill="#000000"></circle><circle cx="39.5" cy="54.2" r="2.3" fill="#ffffff"></circle><path d="M67.5,58.2c0,-0.1 -2.3,1 -2.9,1.1c-0.6,-0.1 -2.9,-1.2 -2.9,-1.1z" fill="#7f4a41"></path><path d="M50,57.7c0,0 -7.9,5.4 -12.2,10.7c-4.3,5.3 -4.2,6.3 -4.2,6.3l3.1,1.4c0,0 4.4,-8.3 9.8,-11.4c5.4,-3.1 6.1,-5.7 6.1,-5.7z" fill-opacity="0.50196" fill="#7b4ae2"></path><path d="M32.7,41.7c0,0 -2.7,7.4 -8.7,10.5c0,0 9.4,-1.1 8.7,-10.5zM95.8,41.7c0,0 2.7,7.4 8.7,10.5c0,0 -9.4,-1.1 -8.7,-10.5zM78.7,55.5c0,0 -5.9,-6.2 -13.8,-6.4h0.1h0.1c-8,0.2 -13.8,6.4 -13.8,6.4c6.9,-4.8 12.8,-4.7 13.8,-4.7c-0.1,0 6.7,-0.1 13.6,4.7zM71.8,42.5c0,0 -3,-4.2 -7,-4.3h0.2c-3,0.1 -6.9,4.3 -6.9,4.3c3.4,-3.3 6.9,-3.2 6.9,-3.2c0,0 3.3,-0.1 6.8,3.2zM37.2,73.2c0,0 -4.7,2.3 -8.1,0.9h-0.1c-3,-1.7 -4.5,-6.8 -4.5,-6.8c0,0 3,9 12.7,5.9zM92,73.2c0,0 4.7,2.3 8.1,0.9c4,-1.7 4.6,-6.8 4.6,-6.8c0,0 -3,9 -12.7,5.9z" fill-opacity="0.50196" fill="#7b4ae2"></path><path d="M42.6,41.2c2.6,-0.5 6.9,-0.6 10.3,0.5c4.3,1.5 0.8,7 1.7,7.3c0.9,0.3 2.1,-3.8 10.1,-3.4c8.1,0.4 9,4 10.1,3.4c1.1,-0.6 -1.1,-10 11,-7.8c0,0 -12.7,-3.4 -12.1,5.8c0,0 -7.3,-5.6 -17.5,-0.6c0.1,0 2.7,-8.6 -13.6,-5.2zM86.9,41.2c0.2,0 0.3,0.1 0.4,0.1c0.1,0 -0.1,-0.1 -0.4,-0.1zM86.9,41.2zM39.1,28.9c0,0 -10.8,13.6 -12.4,18.8c-1.6,5.3 -2.8,27 -4.2,30.1l-5,-21.4l9.2,-22.3zM89.9,28.9c0,0 10.8,13.6 12.4,18.8c1.6,5.3 2.8,27 4.2,30.1l5,-21.4l-9.2,-22.3z" fill-opacity="0.50196" fill="#7b4ae2"></path><path d="M89.4,28.9c0,0 11.6,9.7 15,20.9c3.4,11.2 2,24.8 4.6,26.5c3.7,2.4 7.9,-11.9 9.3,-13.4c2.2,-2.4 9.5,-8.5 10,-9.6c0.5,-1.1 -14.8,-17.8 -21.5,-21.1c-8.1,-3.8 -18.1,-4.1 -17.4,-3.3z" fill-opacity="0.50196" fill="#7b4ae2"></path><path d="M99.3,34.9c0,0 13.7,17.5 13.5,39.3l5.5,-11.2c-0.1,0 -4.9,-14.3 -19,-28.1z" fill-opacity="0.50196" fill="#7b4ae2"></path><path d="M39.1,28.9c0,0 -11.6,9.7 -15,20.9c-3.4,11.2 -2,24.8 -4.6,26.5c-3.7,2.4 -7.9,-11.9 -9.3,-13.4c-2.2,-2.4 -9.5,-8.5 -10,-9.6c-0.5,-1.1 14.8,-17.8 21.5,-21.1c8.1,-3.8 18.1,-4.1 17.4,-3.3z" fill-opacity="0.50196" fill="#7b4ae2"></path><path d="M29.2,34.9c0,0 -13.7,17.5 -13.5,39.3l-5.4,-11.2c0,0 4.8,-14.3 18.9,-28.1z" fill-opacity="0.50196" fill="#7b4ae2"></path><path d="M21.8,74.6c0,0 1,5.4 2.6,7.1c1.6,1.7 0.5,-1.3 0.5,-1.3c0,0 -1.7,-0.9 -1.4,-7.8c0.3,-6.9 -1.7,2 -1.7,2zM107.1,74.6c0,0 -1,5.4 -2.6,7.1c-1.6,1.7 -0.5,-1.3 -0.5,-1.3c0,0 1.7,-0.9 1.4,-7.8c-0.3,-6.9 1.7,2 1.7,2z" fill-opacity="0.50196" fill="#7b4ae2"></path><g fill-opacity="0.50196" fill="#7b4ae2"><circle cx="54.5" cy="70.5" r="0.8"></circle><circle cx="49.9" cy="75.3" r="0.8"></circle><circle cx="48.4" cy="70.5" r="0.8"></circle></g><g fill-opacity="0.50196" fill="#7b4ae2"><circle cx="74" cy="70.5" r="0.8"></circle><circle cx="78.6" cy="75.3" r="0.8"></circle><circle cx="80.1" cy="70.5" r="0.8"></circle></g></g></g></svg>